<svg width="15" height="15" viewBox="0 0 26 16" fill="none" xmlns="http://www.w3.org/2000/svg">
<path d="M16.6849 8.40517C16.5152 11.4644 14.7184 14.0896 12.1455 15.4297H17.7685C21.7509 15.4297 25.0084 12.3258 25.2537 8.40517H16.6849Z" fill="#1D1C18"/>
<path d="M16.6849 7.45421H25.2537C25.0084 3.53361 21.7509 0.429688 17.7685 0.429688L12.1455 0.429688C14.7184 1.76979 16.5152 4.39498 16.6849 7.45421Z" fill="#1D1C18"/>
<path d="M13.0134 13.7207C11.7176 14.7884 10.0572 15.4297 8.24707 15.4297C4.10493 15.4297 0.74707 12.0718 0.74707 7.92969C0.74707 3.78755 4.10493 0.429688 8.24707 0.429688L8.25024 0.429688C10.0541 0.430434 11.709 1.06799 13.0025 2.12975L13.0078 2.13409C11.3352 3.50962 10.2685 5.59509 10.2685 7.92969C10.2685 10.2617 11.3328 12.3451 13.0022 13.7207H13.0134Z" fill="#1D1C18"/>
</svg>
