<svg width="400" height="400" viewBox="0 0 120 120" xmlns="http://www.w3.org/2000/svg">
  <style>
    :root { --dot-radius: 5; }
    .dots circle { r: var(--dot-radius); }
  </style>
  <rect width="120" height="120" fill="white"/>
  <g transform="translate(-6, 18) scale(1.7)">
    <path d="M34.612,23.58c3.169-1.724,5.347-5.269,5.347-9.102C39.959,7.398,34.739,3,26.337,3H9C8.448,3,8,3.448,8,4v42 c0,0.552,0.448,1,1,1h17.739C36.152,47,42,42.044,42,34.066C42,29.08,39.118,25.115,34.612,23.58z M17,10h6.996 C28.419,10,31,12.209,31,16c0,3.881-2.751,6-7.94,6H17V10z M24.629,40H17V28h7.342C30.008,28,33,30.05,33,33.933 C33,37.897,30.095,40,24.629,40z" fill="black"/>
  </g>

  <g class="dots" transform="translate(73, 30)">
    <!-- I = 73 = 01001001 -->
    <circle cx="0" cy="0" r="5" fill="none" stroke="black" stroke-width="1"/>
    <circle cx="12" cy="0" r="5" fill="black"/>
    <circle cx="24" cy="0" r="5" fill="none" stroke="black" stroke-width="1"/>
    <circle cx="36" cy="0" r="5" fill="none" stroke="black" stroke-width="1"/>

    <circle cx="0" cy="12" r="5" fill="black"/>
    <circle cx="12" cy="12" r="5" fill="none" stroke="black" stroke-width="1"/>
    <circle cx="24" cy="12" r="5" fill="none" stroke="black" stroke-width="1"/>
    <circle cx="36" cy="12" r="5" fill="black"/>

    <!-- T = 84 = 01010100 -->
    <circle cx="0" cy="24" r="5" fill="none" stroke="black" stroke-width="1"/>
    <circle cx="12" cy="24" r="5" fill="black"/>
    <circle cx="24" cy="24" r="5" fill="none" stroke="black" stroke-width="1"/>
    <circle cx="36" cy="24" r="5" fill="black"/>

    <circle cx="0" cy="36" r="5" fill="none" stroke="black" stroke-width="1"/>
    <circle cx="12" cy="36" r="5" fill="black"/>
    <circle cx="24" cy="36" r="5" fill="none" stroke="black" stroke-width="1"/>
    <circle cx="36" cy="36" r="5" fill="none" stroke="black" stroke-width="1"/>

    <!-- S = 83 = 01010011 -->
    <circle cx="0" cy="48" r="5" fill="none" stroke="black" stroke-width="1"/>
    <circle cx="12" cy="48" r="5" fill="black"/>
    <circle cx="24" cy="48" r="5" fill="none" stroke="black" stroke-width="1"/>
    <circle cx="36" cy="48" r="5" fill="black"/>

    <circle cx="0" cy="60" r="5" fill="none" stroke="black" stroke-width="1"/>
    <circle cx="12" cy="60" r="5" fill="none" stroke="black" stroke-width="1"/>
    <circle cx="24" cy="60" r="5" fill="black"/>
    <circle cx="36" cy="60" r="5" fill="black"/>
  </g>
</svg>
